<svg width="16" height="11" viewBox="0 0 16 11" fill="none" xmlns="http://www.w3.org/2000/svg">
<path d="M0.235742 7.196V5.81H3.27374V2.492H4.71574V5.81H7.73974V7.196H4.71574V10.5H3.27374V7.196H0.235742ZM8.62087 9.338L9.54487 7.952C10.0769 8.498 10.9309 8.96 11.8129 8.96C12.8349 8.96 13.5909 8.33 13.5909 7.476C13.5909 6.426 12.6389 5.936 11.4629 5.936H10.7769L10.3849 5.012L12.2049 2.856C12.5829 2.394 12.9189 2.1 12.9189 2.1V2.072C12.9189 2.072 12.6109 2.114 12.0369 2.114H9.06887V0.559999H15.1309V1.694L12.7089 4.508C14.0809 4.704 15.4109 5.684 15.4109 7.406C15.4109 9.1 14.1369 10.668 11.9109 10.668C10.7349 10.668 9.48887 10.22 8.62087 9.338Z" fill="#8E87A3"/>
</svg>
