<svg width="21" height="20" viewBox="0 0 21 20" fill="none" xmlns="http://www.w3.org/2000/svg">
<rect x="0.5" width="20" height="20" rx="10" fill="#8E87A3"/>
<path fill-rule="evenodd" clip-rule="evenodd" d="M14.5306 6.48372L13.0523 13.9401C13.0523 13.9401 12.8453 14.4577 12.2759 14.2086L10.1289 12.5622L10.1701 12.5944L8.82111 13.8269C8.82111 13.8269 8.71436 13.9077 8.60114 13.856L8.67308 13.2203L8.87289 11.5301C8.87289 11.5301 12.6577 8.12702 12.8129 7.98145C12.9682 7.83912 12.9165 7.80677 12.9165 7.80677C12.9294 7.63209 12.6383 7.80677 12.6383 7.80677L7.62099 10.9931C7.62099 10.9931 7.621 10.9931 7.621 10.9931L7.62097 10.9931L5.53125 10.2912C5.53125 10.2912 5.211 10.1779 5.17865 9.92885C5.1463 9.67976 5.54096 9.54713 5.54096 9.54713L13.8481 6.28962C13.8481 6.28639 14.5306 5.98555 14.5306 6.48372Z" fill="white"/>
</svg>
