<svg width="21" height="20" viewBox="0 0 21 20" fill="none" xmlns="http://www.w3.org/2000/svg">
<rect x="0.5" width="20" height="20" rx="10" fill="#8E87A3"/>
<path fill-rule="evenodd" clip-rule="evenodd" d="M10.7793 3.60403C14.0314 3.61818 15.4901 4.67672 15.8504 5.0087C17.048 6.05018 17.712 8.35445 17.2636 12.0038C16.871 15.2224 14.628 15.7934 13.8732 15.9856C13.7988 16.0045 13.7389 16.0198 13.6966 16.0335C13.4923 16.0988 11.7016 16.5471 9.36895 16.3513C9.1107 16.6493 8.7702 17.0409 8.52329 17.3077C8.44853 17.3881 8.37853 17.4675 8.31161 17.5435C7.97465 17.926 7.71596 18.2197 7.32292 18.0965C6.93133 17.9774 6.95401 17.3843 6.95401 17.3843L6.95682 15.92H6.95401C3.54583 14.9608 3.59407 11.425 3.63381 9.5378C3.67355 7.6507 4.03961 6.12678 5.07825 5.08821C6.94551 3.37418 10.7793 3.60403 10.7793 3.60403ZM13.4894 14.9608C14.1313 14.811 15.9153 14.3946 16.2449 11.7371C16.6223 8.69219 16.1058 6.61492 15.0928 5.74655C14.7863 5.46843 13.4695 4.63984 10.7198 4.6285C10.7198 4.6285 7.46482 4.41565 5.88417 5.84874C5.00446 6.71708 4.70647 8.00828 4.67526 9.58321C4.67419 9.63739 4.67295 9.69327 4.67168 9.7507C4.63596 11.3627 4.57316 14.1966 7.36266 14.9693C7.36266 14.9693 7.35132 17.2055 7.35132 17.4013C7.34848 17.6993 7.51306 17.7134 7.66346 17.5631C8.12318 17.1005 9.59883 15.3212 9.59883 15.3212C11.5768 15.4489 13.1517 15.0573 13.322 15.0034C13.3615 14.9907 13.4185 14.9774 13.4894 14.9608Z" fill="white"/>
<path d="M12.3004 9.44413C12.3117 9.68816 11.9457 9.70522 11.9343 9.46112C11.9031 8.83682 11.6108 8.53321 11.0092 8.49915C10.7651 8.48494 10.7878 8.11888 11.029 8.13309C11.8208 8.17565 12.2607 8.62968 12.3004 9.44413Z" fill="white"/>
<path d="M12.8765 9.76482C12.9048 8.5616 12.1529 7.61947 10.7254 7.5145C10.4842 7.49747 10.5097 7.13138 10.751 7.1484C12.3969 7.26762 13.2737 8.39989 13.2425 9.77335C13.2397 10.0174 12.8708 10.0061 12.8765 9.76482Z" fill="white"/>
<path d="M14.2102 10.1451C14.213 10.3892 13.8441 10.392 13.8441 10.148C13.8271 7.83518 12.2862 6.57519 10.4161 6.56101C10.1749 6.55816 10.1749 6.19495 10.4161 6.19495C12.5075 6.20913 14.1904 7.65354 14.2102 10.1451Z" fill="white"/>
<path d="M13.8895 12.9289V12.9346C13.583 13.4737 13.0098 14.0697 12.4196 13.8796L12.4139 13.871C11.8151 13.7036 10.4048 12.9772 9.51369 12.2677C9.05396 11.9044 8.63395 11.476 8.31044 11.0645C8.01817 10.6984 7.72306 10.2642 7.43645 9.74206C6.83201 8.6495 6.69864 8.16141 6.69864 8.16141C6.5085 7.57116 7.1016 6.9979 7.64358 6.69145H7.6493C7.91036 6.5552 8.16007 6.60063 8.3275 6.80207C8.3275 6.80207 8.67941 7.22203 8.82977 7.42926C8.97167 7.6222 9.16181 7.9315 9.26113 8.10461C9.43424 8.41391 9.32636 8.72892 9.15613 8.85941L8.81559 9.13187C8.64251 9.2709 8.66519 9.52915 8.66519 9.52915C8.66519 9.52915 9.17031 11.439 11.0574 11.9214C11.0574 11.9214 11.3157 11.9441 11.4547 11.771L11.7272 11.4305C11.8577 11.2602 12.1727 11.1524 12.482 11.3255C12.8992 11.561 13.4298 11.9271 13.7817 12.2592C13.9803 12.4209 14.0257 12.6678 13.8895 12.9289Z" fill="white"/>
</svg>
