<svg width="21" height="20" viewBox="0 0 21 20" fill="none" xmlns="http://www.w3.org/2000/svg">
<rect x="0.5" width="20" height="20" rx="10" fill="#8E87A3"/>
<path d="M16.864 6.78195C16.712 6.20595 16.262 5.75395 15.69 5.59995C14.654 5.31995 10.502 5.31995 10.502 5.31995C10.502 5.31995 6.348 5.31995 5.314 5.59995C4.742 5.75395 4.292 6.20595 4.14 6.78195C3.86 7.82395 3.86 9.99995 3.86 9.99995C3.86 9.99995 3.86 12.1759 4.138 13.2179C4.29 13.7939 4.74 14.2459 5.312 14.3999C6.348 14.6799 10.5 14.6799 10.5 14.6799C10.5 14.6799 14.654 14.6799 15.688 14.3999C16.26 14.2459 16.71 13.7939 16.862 13.2179C17.14 12.1759 17.14 9.99995 17.14 9.99995C17.14 9.99995 17.14 7.82395 16.864 6.78195ZM9.142 11.9739V8.02595L12.612 9.99995L9.142 11.9739Z" fill="white"/>
</svg>
