<svg width="25" height="25" viewBox="0 0 25 25" fill="none" xmlns="http://www.w3.org/2000/svg">
<path fill-rule="evenodd" clip-rule="evenodd" d="M12.5 25C19.3927 25 25 19.3927 25 12.5C25 5.60833 19.3927 0 12.5 0C5.60729 0 0 5.60833 0 12.5C0 19.3927 5.60729 25 12.5 25ZM12.5 2.08333C18.2438 2.08333 22.9167 6.75625 22.9167 12.5C22.9167 18.2437 18.2438 22.9167 12.5 22.9167C6.75625 22.9167 2.08333 18.2437 2.08333 12.5C2.08333 6.75625 6.75625 2.08333 12.5 2.08333ZM13.8469 17.4031C14.05 17.6063 14.3167 17.7083 14.5833 17.7083C14.85 17.7083 15.1167 17.6063 15.3198 17.4031C15.7271 16.9969 15.7271 16.3365 15.3198 15.9302L11.8896 12.5L15.3198 9.06979C15.7271 8.66354 15.7271 8.00417 15.3198 7.59687C14.9125 7.18958 14.2542 7.18958 13.8469 7.59687L9.68021 11.7635C9.27292 12.1698 9.27292 12.8302 9.68021 13.2365L13.8469 17.4031Z" fill="#5813FE"/>
</svg>
