<svg width="25" height="25" viewBox="0 0 25 25" fill="none" xmlns="http://www.w3.org/2000/svg">
<path fill-rule="evenodd" clip-rule="evenodd" d="M12.4552 25C5.58719 25 0 19.3927 0 12.5C0 5.60729 5.58719 0 12.4552 0C19.3232 0 24.9104 5.60729 24.9104 12.5C24.9104 19.3927 19.3232 25 12.4552 25ZM12.4552 2.08333C6.73203 2.08333 2.07587 6.75625 2.07587 12.5C2.07587 18.2437 6.73203 22.9167 12.4552 22.9167C18.1784 22.9167 22.8345 18.2437 22.8345 12.5C22.8345 6.75625 18.1784 2.08333 12.4552 2.08333ZM17.6449 13.5417H7.26553C6.69259 13.5417 6.2276 13.075 6.2276 12.5C6.2276 11.925 6.69259 11.4583 7.26553 11.4583H17.6449C18.2178 11.4583 18.6828 11.925 18.6828 12.5C18.6828 13.075 18.2178 13.5417 17.6449 13.5417Z" fill="#5813FE"/>
</svg>
