<svg width="25" height="25" viewBox="0 0 25 25" fill="none" xmlns="http://www.w3.org/2000/svg">
<path fill-rule="evenodd" clip-rule="evenodd" d="M21.261 21.3385C18.9091 23.7 15.7818 25 12.4552 25C9.12862 25 6.00133 23.7 3.64937 21.3385C1.29534 18.9781 0 15.8385 0 12.5C0 9.16146 1.29534 6.02292 3.64937 3.66146C6.00029 1.30104 9.12862 0 12.4552 0C15.7818 0 18.9101 1.30104 21.2621 3.6625C23.614 6.02292 24.9104 9.16146 24.9104 12.5C24.9104 15.8385 23.614 18.9781 21.261 21.3385ZM19.7934 5.13542C17.8338 3.16667 15.2275 2.08333 12.4552 2.08333C9.68288 2.08333 7.07663 3.16667 5.11701 5.13542C3.15532 7.10312 2.07587 9.71771 2.07587 12.5C2.07587 15.2823 3.15532 17.8979 5.11701 19.8656C7.07663 21.8333 9.68288 22.9167 12.4552 22.9167C15.2275 22.9167 17.8338 21.8333 19.7934 19.8656C21.754 17.8979 22.8345 15.2823 22.8345 12.5C22.8345 9.71771 21.754 7.10312 19.7934 5.13542ZM17.6449 13.5417H13.4931V17.7083C13.4931 18.2833 13.0281 18.75 12.4552 18.75C11.8823 18.75 11.4173 18.2833 11.4173 17.7083V13.5417H7.26553C6.69259 13.5417 6.2276 13.075 6.2276 12.5C6.2276 11.925 6.69259 11.4583 7.26553 11.4583H11.4173V7.29167C11.4173 6.71667 11.8823 6.25 12.4552 6.25C13.0281 6.25 13.4931 6.71667 13.4931 7.29167V11.4583H17.6449C18.2178 11.4583 18.6828 11.925 18.6828 12.5C18.6828 13.075 18.2178 13.5417 17.6449 13.5417Z" fill="#5813FE"/>
</svg>
