<svg width="25" height="25" viewBox="0 0 25 25" fill="none" xmlns="http://www.w3.org/2000/svg">
<path fill-rule="evenodd" clip-rule="evenodd" d="M12.5 25C5.60729 25 0 19.3927 0 12.5C0 5.60833 5.60729 0 12.5 0C19.3927 0 25 5.60833 25 12.5C25 19.3927 19.3927 25 12.5 25ZM12.5 2.08333C6.75625 2.08333 2.08333 6.75625 2.08333 12.5C2.08333 18.2437 6.75625 22.9167 12.5 22.9167C18.2437 22.9167 22.9167 18.2437 22.9167 12.5C22.9167 6.75625 18.2437 2.08333 12.5 2.08333ZM11.1531 17.4031C10.95 17.6063 10.6833 17.7083 10.4167 17.7083C10.15 17.7083 9.88333 17.6063 9.68021 17.4031C9.27292 16.9969 9.27292 16.3365 9.68021 15.9302L13.1104 12.5L9.68021 9.06979C9.27292 8.66354 9.27292 8.00417 9.68021 7.59687C10.0875 7.18958 10.7458 7.18958 11.1531 7.59687L15.3198 11.7635C15.7271 12.1698 15.7271 12.8302 15.3198 13.2365L11.1531 17.4031Z" fill="#5813FE"/>
</svg>
