<svg width="21" height="20" viewBox="0 0 21 20" fill="none" xmlns="http://www.w3.org/2000/svg">
<rect x="0.5" width="20" height="20" rx="10" fill="#8E87A3"/>
<path fill-rule="evenodd" clip-rule="evenodd" d="M15.6468 4.87527C14.4068 3.63327 12.7548 2.94927 10.9967 2.94727C7.37475 2.94727 4.42475 5.89527 4.42475 9.51927C4.42475 10.6773 4.72675 11.8093 5.30275 12.8053L4.37075 16.2113L7.85475 15.2973C8.81475 15.8213 9.89475 16.0973 10.9948 16.0973H10.9967C14.6187 16.0973 17.5668 13.1493 17.5688 9.52527C17.5708 7.76927 16.8888 6.11727 15.6468 4.87527ZM10.9988 14.9873H10.9967C10.0167 14.9873 9.05475 14.7233 8.21675 14.2253L8.01675 14.1073L5.94875 14.6493L6.50075 12.6333L6.37075 12.4273C5.82475 11.5573 5.53475 10.5533 5.53475 9.51927C5.53675 6.50726 7.98675 4.05727 11.0008 4.05727C12.4608 4.05727 13.8307 4.62727 14.8628 5.65927C15.8947 6.69127 16.4628 8.06527 16.4608 9.52327C16.4608 12.5373 14.0087 14.9873 10.9988 14.9873ZM13.9948 10.8953C13.8307 10.8133 13.0227 10.4153 12.8728 10.3613C12.7228 10.3073 12.6128 10.2793 12.5028 10.4433C12.3928 10.6073 12.0788 10.9773 11.9828 11.0873C11.8868 11.1973 11.7908 11.2113 11.6268 11.1293C11.4628 11.0473 10.9328 10.8733 10.3067 10.3133C9.81875 9.87727 9.48875 9.33927 9.39275 9.17527C9.29675 9.01127 9.38275 8.92127 9.46475 8.83926C9.53875 8.76526 9.62875 8.64727 9.71075 8.55127C9.79275 8.45527 9.82075 8.38727 9.87475 8.27727C9.92875 8.16727 9.90275 8.07127 9.86075 7.98927C9.81875 7.90727 9.49075 7.09927 9.35475 6.76927C9.22075 6.44927 9.08675 6.49327 8.98475 6.48727C8.88875 6.48327 8.77875 6.48127 8.67075 6.48127C8.56075 6.48127 8.38275 6.52327 8.23275 6.68727C8.08275 6.85127 7.65875 7.24927 7.65875 8.05727C7.65875 8.86527 8.24675 9.64727 8.32875 9.75527C8.41075 9.86527 9.48675 11.5233 11.1347 12.2353C11.5268 12.4053 11.8327 12.5053 12.0707 12.5813C12.4647 12.7073 12.8228 12.6893 13.1047 12.6473C13.4207 12.5993 14.0768 12.2493 14.2128 11.8673C14.3488 11.4833 14.3488 11.1553 14.3088 11.0873C14.2688 11.0193 14.1587 10.9793 13.9948 10.8953Z" fill="white"/>
</svg>
