<svg width="21" height="20" viewBox="0 0 21 20" fill="none" xmlns="http://www.w3.org/2000/svg">
<rect x="0.5" width="20" height="20" rx="10" fill="#8E87A3"/>
<path fill-rule="evenodd" clip-rule="evenodd" d="M16.88 6.89C16.972 6.58 16.88 6.354 16.438 6.354H14.98C14.61 6.354 14.438 6.55 14.346 6.766C14.346 6.766 13.604 8.574 12.554 9.748C12.214 10.088 12.06 10.196 11.874 10.196C11.782 10.196 11.648 10.088 11.648 9.778V6.89C11.648 6.52 11.54 6.354 11.232 6.354H8.94C8.708 6.354 8.568 6.526 8.568 6.69C8.568 7.042 9.094 7.122 9.148 8.112V10.26C9.148 10.73 9.062 10.816 8.878 10.816C8.384 10.816 7.182 9 6.468 6.922C6.328 6.518 6.188 6.356 5.816 6.356H4.358C3.942 6.356 3.858 6.552 3.858 6.768C3.858 7.154 4.352 9.07 6.16 11.604C7.366 13.334 9.062 14.272 10.608 14.272C11.534 14.272 11.65 14.064 11.65 13.704V12.396C11.65 11.98 11.738 11.896 12.032 11.896C12.248 11.896 12.62 12.004 13.484 12.838C14.472 13.826 14.636 14.27 15.192 14.27H16.65C17.066 14.27 17.274 14.062 17.154 13.65C17.022 13.24 16.55 12.646 15.924 11.94C15.584 11.538 15.074 11.106 14.92 10.89C14.704 10.612 14.766 10.488 14.92 10.242C14.918 10.242 16.694 7.74 16.88 6.89Z" fill="white"/>
</svg>
